<svg id="Layer_1" enable-background="new 0 0 512 512" height="512" viewBox="0 0 512 512" width="512" xmlns="http://www.w3.org/2000/svg"><g clip-rule="evenodd" fill-rule="evenodd"><g><g><path d="m377.666 64.008h-260.903c-2.344 0-4.361.836-6.018 2.493l-47.786 47.786c-1.657 1.657-2.493 3.674-2.493 6.018v357.342c0 4.687 3.823 8.511 8.511 8.511h308.688c4.688 0 8.511-3.823 8.511-8.511v-405.128c0-4.688-3.823-8.511-8.51-8.511z" fill="#eceff1"/><path d="m377.666 64.008h-15.57v422.149h15.57c4.688 0 8.511-3.823 8.511-8.511v-405.127c-.001-4.688-3.824-8.511-8.511-8.511z" fill="#d1d1d6"/><path d="m113.238 64.746c-.904.413-1.736.998-2.493 1.755l-47.785 47.785c-.757.757-1.342 1.589-1.755 2.493h47.778c2.344 0 4.255-1.912 4.255-4.255z" fill="#a79ba7"/></g><g><path d="m99.682 352.312h26.279c3.689 0 6.697 3.008 6.697 6.697v64.115c0 3.689-3.008 6.697-6.697 6.697h-26.279c-3.689 0-6.697-3.008-6.697-6.697v-64.115c0-3.689 3.009-6.697 6.697-6.697z" fill="#fe646f"/><path d="m115.975 352.312h9.986c3.689 0 6.697 3.008 6.697 6.697v64.115c0 3.688-3.008 6.697-6.697 6.697h-9.986c3.689 0 6.697-3.009 6.697-6.697v-64.115c0-3.689-3.008-6.697-6.697-6.697z" fill="#fd4755"/><path d="m173.349 303.193h26.279c3.689 0 6.697 3.008 6.697 6.697v113.234c0 3.689-3.008 6.697-6.697 6.697h-26.279c-3.689 0-6.697-3.008-6.697-6.697v-113.234c0-3.689 3.008-6.697 6.697-6.697z" fill="#ffe177"/><path d="m189.641 303.193h9.986c3.689 0 6.697 3.008 6.697 6.697v113.235c0 3.688-3.008 6.697-6.697 6.697h-9.986c3.689 0 6.697-3.009 6.697-6.697v-113.235c0-3.689-3.008-6.697-6.697-6.697z" fill="#ffd064"/><path d="m247.015 319.728h26.279c3.689 0 6.697 3.009 6.697 6.698v96.698c0 3.689-3.008 6.698-6.697 6.698-8.76 0-17.519 0-26.279 0-3.689 0-6.698-3.009-6.697-6.698 0-38.992 0-57.705 0-96.698-.001-3.689 3.008-6.698 6.697-6.698z" fill="#6cf5c2"/><path d="m263.308 319.728h9.986c3.689 0 6.698 3.009 6.697 6.698v96.698c.001 3.689-3.008 6.698-6.697 6.698h-9.986c3.689 0 6.698-3.009 6.697-6.698 0-38.992 0-57.705 0-96.698.001-3.689-3.008-6.698-6.697-6.698z" fill="#00e499"/><path d="m320.68 251.152h26.279c3.689 0 6.697 3.008 6.697 6.697v165.275c0 3.689-3.009 6.697-6.697 6.697h-26.279c-3.689 0-6.697-3.008-6.697-6.697v-165.275c0-3.689 3.008-6.697 6.697-6.697z" fill="#8ac9fe"/><path d="m336.973 251.152h9.986c3.689 0 6.697 3.008 6.697 6.697v165.275c0 3.688-3.009 6.697-6.697 6.697h-9.986c3.689 0 6.697-3.009 6.697-6.697v-165.275c0-3.689-3.008-6.697-6.697-6.697z" fill="#60b7ff"/></g><g><path d="m293.51 144.788 123.758-123.757c6.709-6.709 17.652-6.709 24.361 0l4.872 4.873c6.709 6.709 6.709 17.652 0 24.361l-123.757 123.757-39.934 10.7z" fill="#ffe177"/><path d="m439.217 19.023c.85.585 1.658 1.253 2.412 2.008l4.872 4.873c6.709 6.709 6.709 17.652 0 24.361l-123.757 123.757-39.934 10.7 3.401-12.693 27.241-7.299 123.758-123.757c5.954-5.955 6.623-15.245 2.007-21.95z" fill="#ffd064"/><path d="m282.81 184.723 10.7-39.935 29.234 29.234z" fill="#e3a76f"/><path d="m282.81 184.723 3.401-12.694 27.241-7.299 9.292 9.292z" fill="#c48958"/><path d="m403.048 35.251 14.22-14.22c6.709-6.709 17.652-6.709 24.361 0l4.872 4.872c6.709 6.709 6.709 17.653 0 24.362l-14.22 14.219z" fill="#e3a76f"/><path d="m439.218 19.024c.849.585 1.657 1.253 2.412 2.007l4.872 4.872c6.709 6.709 6.709 17.653 0 24.362l-14.22 14.219-9.292-9.292 14.219-14.219c5.955-5.955 6.624-15.245 2.009-21.949z" fill="#c48958"/></g><g><circle cx="353.656" cy="409.406" fill="#ffe177" r="86.595"/><path d="m353.656 322.811c47.825 0 86.595 38.77 86.595 86.595s-38.77 86.595-86.595 86.595c-1.961 0-3.906-.071-5.834-.2 45.104-3.002 80.761-40.531 80.761-86.395s-35.657-83.394-80.761-86.395c1.929-.129 3.873-.2 5.834-.2z" fill="#ffd064"/><ellipse cx="353.656" cy="409.405" fill="#ffc338" rx="66.124" ry="66.124" transform="matrix(.028 -1 1 .028 -65.405 751.566)"/><path d="m353.656 343.282c-36.519 0-66.124 29.605-66.124 66.124s29.604 66.124 66.124 66.124c1.795 0 3.574-.074 5.333-.214-34.025-2.716-60.791-31.186-60.791-65.909 0-34.724 26.766-63.194 60.791-65.91-1.759-.141-3.537-.215-5.333-.215z" fill="#f5b829"/></g></g><path d="m378.172 318.044c-5.338-1.435-10.86-2.413-16.519-2.888v-64c0-4.421-3.579-8.001-8.001-8.001h-39.669c-4.421 0-8 3.579-8 8.001v76.582c-6.543 3.829-12.582 8.419-18 13.649v-21.655c0-4.421-3.579-8.001-8.001-8.001h-39.669c-4.421 0-8.001 3.58-8.001 8.001v110.094c0 4.417 3.579 7.996 8.001 7.996h23.108c4.91 15.559 13.743 29.387 25.333 40.333h-219.784c-.259 0-.508-.245-.508-.508v-352.865h40.52c6.759 0 12.248-5.498 12.248-12.257v-40.516h233.744l-67.124 67.123c-.456.461-.856.978-1.19 1.529h-97.019c-4.421 0-8.001 3.579-8.001 8 0 4.417 3.58 8.001 8.001 8.001h92.4l-5.381 20.061h-87.019c-4.421 0-8.001 3.584-8.001 8.001 0 4.421 3.58 8.001 8.001 8.001h93.162c.687 0 1.388-.09 2.07-.273l39.942-10.7c1.345-.362 2.587-1.077 3.589-2.07l49.767-49.772v188.134zm-32.52-2.888v-56h-23.668v61.117c7.497-2.672 15.437-4.421 23.668-5.117zm-85.777 106.665c-.531-4.064-.814-8.203-.814-12.412 0-17.379 4.713-33.677 12.92-47.689v-33.992h-23.668v94.093zm172.368-12.412c0-43.338-35.253-78.595-78.591-78.595s-78.591 35.257-78.591 78.595 35.253 78.59 78.591 78.59 78.591-35.253 78.591-78.59zm-327.009-326.083-25.451 25.455h25.451zm324.21-59.325c2.479 0 4.788.955 6.528 2.69l4.868 4.868c3.612 3.598 3.612 9.454 0 13.052l-8.56 8.56-17.915-17.92 8.56-8.565c1.727-1.73 4.05-2.685 6.519-2.685zm-106.703 138.71 98.223-98.227-17.92-17.916-98.223 98.223zm-25.088-2.464-3.528 13.165 13.156-3.527zm154.514-104.324c9.83-9.835 9.83-25.841 0-35.676l-4.892-4.873c-4.75-4.754-11.081-7.374-17.831-7.374s-13.08 2.62-17.84 7.375l-40.633 40.638h-254.209c-4.478 0-8.508 1.67-11.679 4.835l-47.778 47.782c-3.175 3.165-4.845 7.201-4.845 11.679v357.338c0 9.101 7.413 16.509 16.509 16.509h242.695c12.657 6.298 26.918 9.844 41.988 9.844 52.161 0 94.611-42.435 94.611-94.592 0-37.67-22.149-70.261-54.09-85.467v-210.033zm-270.526 56.677c0 4.421 3.58 8 8.001 8h107.79c4.412 0 8.001-3.579 8.001-8 0-4.417-3.589-8.001-8.001-8.001h-107.79c-4.421.001-8.001 3.585-8.001 8.001zm-42.66 0c0 4.421 3.584 8 8.001 8h11.523c4.417 0 7.996-3.579 7.996-8 0-4.417-3.579-8.001-7.996-8.001h-11.523c-4.417.001-8.001 3.585-8.001 8.001zm0 36.062c0 4.417 3.584 8.001 8.001 8.001h11.523c4.417 0 7.996-3.584 7.996-8.001 0-4.421-3.579-8-7.996-8h-11.523c-4.417-.001-8.001 3.579-8.001 8zm0 36.061c0 4.421 3.584 8.001 8.001 8.001h11.523c4.417 0 7.996-3.579 7.996-8.001 0-4.416-3.579-8.001-7.996-8.001h-11.523c-4.417.001-8.001 3.585-8.001 8.001zm214.672 174.843c-4.421 0-8 3.579-8 8v2.427c-11.961 3.212-19.548 12.822-18.997 24.246.339 7.004 4.139 19.275 25.761 22.821 13.598 2.234 14.157 6.829 14.397 8.791.249 2.117-.391 3.194-1.059 3.965-2.022 2.328-6.613 3.97-11.434 4.083-5.475.136-12.478-2.055-14.12-8.64-1.068-4.285-5.409-6.895-9.699-5.828-4.29 1.068-6.89 5.414-5.827 9.699 2.507 10.042 10.498 17.341 20.978 19.839v2.281c0 4.416 3.579 8.001 8 8.001s8.001-3.584 8.001-8.001v-2.145c6.651-1.383 12.45-4.487 16.199-8.824 3.909-4.525 5.592-10.183 4.84-16.359-1.491-12.257-10.799-19.877-27.68-22.647-12.088-1.985-12.299-6.218-12.38-7.808-.277-5.884 5.879-7.747 7.779-8.175 4.191-.95 12.121-.517 15.333 7.121 1.707 4.078 6.397 5.992 10.47 4.28 4.078-1.707 5.987-6.397 4.275-10.47-3.857-9.214-11.11-14.318-18.838-16.307v-2.352c.001-4.419-3.578-7.998-7.999-7.998zm58.121 49.843c0-32.05-26.071-58.125-58.121-58.125s-58.121 26.076-58.121 58.125 26.071 58.121 58.121 58.121c32.049 0 58.121-26.072 58.121-58.121zm-132.239 0c0 40.868 33.249 74.122 74.117 74.122s74.122-33.254 74.122-74.122c0-40.873-33.254-74.122-74.122-74.122s-74.117 33.248-74.117 74.122zm29.599-211.84c-4.402.386-7.653 4.266-7.272 8.669.39 4.398 4.271 7.657 8.669 7.267l2.225-.193-54.824 55.285-68.981-22.356c-2.526-.818-5.287-.329-7.38 1.298l-73.671 57.358c-3.476 2.714-4.106 7.742-1.397 11.227 1.58 2.027 3.942 3.085 6.321 3.085 1.717 0 3.448-.55 4.906-1.689l70.322-54.753 69.63 22.567c2.869.931 6.021.164 8.151-1.975l57.477-57.97-.118 1.077c-.489 4.393 2.672 8.349 7.06 8.838.301.033.602.052.898.052 4.022 0 7.478-3.024 7.944-7.112l2.667-23.922c.273-2.385-.55-4.76-2.22-6.477-1.679-1.717-4.031-2.591-6.43-2.38zm-184.48 224.252v-61.507h-23.673v61.507zm8.001-77.509h-39.669c-4.421 0-8.005 3.584-8.005 8v77.509c0 4.421 3.584 8 8.005 8h39.669c4.417 0 7.996-3.579 7.996-8v-77.509c0-4.415-3.58-8-7.996-8zm65.67 77.509v-110.626h-23.673v110.626zm7.996-126.627h-39.669c-4.417 0-8.001 3.584-8.001 8.001v126.627c0 4.421 3.584 8 8.001 8h39.669c4.421 0 8.001-3.579 8.001-8v-126.627c-.001-4.417-3.58-8.001-8.001-8.001z"/></g></svg>