<svg id="Layer_1" enable-background="new 0 0 512 512" viewBox="0 0 512 512" xmlns="http://www.w3.org/2000/svg"><g clip-rule="evenodd" fill-rule="evenodd"><g><path d="m419.128 435.63h-306.331c0-336.338 0-71.032 0-313.596l73.983-73.983h232.348z" fill="#c8c9cd"/><path d="m379.579 396.081h-306.331c0-336.339 0-71.033 0-313.596l73.983-73.983h232.348z" fill="#f0f0f0"/><path d="m73.248 82.485 73.983-73.983v73.983z" fill="#e0dfe1"/><path d="m329.851 334.624c4.142 0 7.5 3.358 7.5 7.5s-3.358 7.5-7.5 7.5h-206.879c-4.142 0-7.5-3.358-7.5-7.5s3.358-7.5 7.5-7.5zm0-46.611c4.142 0 7.5 3.358 7.5 7.5s-3.358 7.5-7.5 7.5h-206.879c-4.142 0-7.5-3.358-7.5-7.5s3.358-7.5 7.5-7.5zm0-46.612c4.142 0 7.5 3.358 7.5 7.5s-3.358 7.5-7.5 7.5h-206.879c-4.142 0-7.5-3.358-7.5-7.5s3.358-7.5 7.5-7.5z" fill="#98999b"/></g><g><ellipse cx="256.269" cy="123.949" fill="#43a2ff" rx="90.015" ry="90.015" transform="matrix(.099 -.995 .995 .099 107.671 366.757)"/><path d="m276.905 144.585 43.014 43.014c16.29-16.29 26.365-38.794 26.365-63.65h-60.831c0 8.059-3.267 15.355-8.548 20.636z" fill="#ff6372"/><path d="m285.453 123.949h60.831c0-31.895-16.588-59.915-41.608-75.904-13.978-8.933-30.588-14.111-48.407-14.111v14.111 46.72c16.118 0 29.184 13.065 29.184 29.184z" fill="#ffd54f"/><ellipse cx="256.269" cy="123.948" fill="#c9f0ff" rx="39.907" ry="39.907" transform="matrix(.707 -.707 .707 .707 -12.585 217.513)"/></g><g><ellipse cx="106.134" cy="373.489" fill="#ffd54f" rx="93.233" ry="93.233" transform="matrix(.707 -.707 .707 .707 -233.011 184.441)"/><ellipse cx="106.134" cy="373.489" fill="#ffb700" rx="65.35" ry="65.35" transform="matrix(.987 -.16 .16 .987 -58.456 21.824)"/><path d="m129.472 357.652c0 4.142-3.358 7.5-7.5 7.5s-7.5-3.358-7.5-7.5c0-2.285-.94-4.368-2.455-5.883-1.514-1.515-3.598-2.455-5.883-2.455-3.065 0-5.739.87-7.496 2.477-1.431 1.309-2.317 3.287-2.317 5.861s.886 4.551 2.317 5.86c1.757 1.607 4.431 2.477 7.496 2.477 6.728 0 12.991 2.269 17.575 6.462 4.472 4.09 7.24 9.82 7.24 16.876s-2.768 12.786-7.24 16.876c-2.817 2.577-6.27 4.427-10.074 5.471v4.219c0 4.142-3.358 7.5-7.5 7.5s-7.5-3.358-7.5-7.5v-4.468c-3.419-1.167-6.486-3.107-8.988-5.609-4.226-4.227-6.85-10.063-6.85-16.488 0-4.142 3.358-7.5 7.5-7.5s7.5 3.358 7.5 7.5c0 2.285.94 4.368 2.455 5.882 1.515 1.515 3.598 2.455 5.882 2.455 3.065 0 5.74-.87 7.496-2.477 1.431-1.309 2.318-3.287 2.318-5.861s-.886-4.551-2.318-5.86c-1.757-1.607-4.431-2.477-7.496-2.477-6.728 0-12.991-2.269-17.574-6.462-4.472-4.09-7.239-9.821-7.239-16.876s2.768-12.786 7.239-16.876c2.817-2.577 6.27-4.427 10.074-5.47v-4.22c0-4.142 3.358-7.5 7.5-7.5s7.5 3.358 7.5 7.5v4.469c3.419 1.167 6.486 3.107 8.988 5.609 4.227 4.226 6.85 10.063 6.85 16.488z" fill="#ffd54f"/></g><g><path d="m499.098 485.296v-218.193c0-10.025-8.177-18.202-18.202-18.202h-173.336c-10.025 0-18.202 8.177-18.202 18.202v218.193c0 10.025 8.177 18.202 18.202 18.202h173.336c10.025 0 18.202-8.177 18.202-18.202z" fill="#595751"/><g fill="#f0f0f0"><path d="m323.601 334.867h22.055c4.009 0 7.28 3.271 7.28 7.28v22.055c0 4.01-3.271 7.28-7.28 7.28-7.352 0-14.703 0-22.055 0-4.009 0-7.28-3.27-7.28-7.28 0-7.351 0-14.704 0-22.055.001-4.009 3.271-7.28 7.28-7.28z"/><path d="m323.601 391.078h22.055c4.009 0 7.28 3.27 7.28 7.28v22.055c0 4.01-3.271 7.28-7.28 7.28-7.352 0-14.703 0-22.055 0-4.009 0-7.28-3.27-7.28-7.28 0-7.351 0-14.703 0-22.055.001-4.01 3.271-7.28 7.28-7.28z"/><path d="m323.601 447.288h22.055c4.009 0 7.28 3.271 7.28 7.28v22.055c0 4.009-3.271 7.28-7.28 7.28-7.352 0-14.703 0-22.055 0-4.009 0-7.28-3.27-7.28-7.28 0-7.351 0-14.703 0-22.055.001-4.01 3.271-7.28 7.28-7.28z"/><path d="m383.2 334.867h22.055c4.009 0 7.28 3.271 7.28 7.28v22.055c0 4.01-3.271 7.28-7.28 7.28-7.352 0-14.703 0-22.055 0-4.009 0-7.28-3.27-7.28-7.28 0-7.351 0-14.704 0-22.055.001-4.009 3.271-7.28 7.28-7.28z"/><path d="m383.2 391.078h22.055c4.009 0 7.28 3.27 7.28 7.28v22.055c0 4.01-3.271 7.28-7.28 7.28-7.352 0-14.703 0-22.055 0-4.009 0-7.28-3.27-7.28-7.28 0-7.351 0-14.703 0-22.055.001-4.01 3.271-7.28 7.28-7.28z"/><path d="m383.2 447.288h22.055c4.009 0 7.28 3.271 7.28 7.28v22.055c0 4.009-3.271 7.28-7.28 7.28-7.352 0-14.703 0-22.055 0-4.009 0-7.28-3.27-7.28-7.28 0-7.351 0-14.703 0-22.055.001-4.01 3.271-7.28 7.28-7.28z"/><path d="m442.8 334.867h22.055c4.009 0 7.28 3.271 7.28 7.28v22.055c0 4.01-3.27 7.28-7.28 7.28-7.351 0-14.703 0-22.055 0-4.009 0-7.28-3.27-7.28-7.28 0-7.351 0-14.704 0-22.055 0-4.009 3.27-7.28 7.28-7.28z"/></g><path d="m442.8 391.078h22.055c4.009 0 7.28 3.27 7.28 7.28v78.265c0 4.009-3.27 7.28-7.28 7.28-7.351 0-14.703 0-22.055 0-4.009 0-7.28-3.271-7.28-7.28 0-26.088 0-52.176 0-78.265 0-4.01 3.27-7.28 7.28-7.28z" fill="#ff6372"/><path d="m464.854 273.955h-141.252c-4.004 0-7.28 3.276-7.28 7.28v26.757c0 4.004 3.276 7.28 7.28 7.28h141.252c4.004 0 7.28-3.276 7.28-7.28v-26.757c.001-4.004-3.275-7.28-7.28-7.28z" fill="#c9f0ff"/></g></g></svg>